<?xml version="1.0" encoding="UTF-8"?>
<svg width="300px" height="250px" viewBox="0 0 300 250" version="1.1" xmlns="http://www.w3.org/2000/svg" xmlns:xlink="http://www.w3.org/1999/xlink">
    <!-- Generator: Sketch 47.1 (45422) - http://www.bohemiancoding.com/sketch -->
    <title>woozle_logo</title>
    <desc>Created with Sketch.</desc>
    <defs></defs>
    <g id="Page-1" stroke="none" stroke-width="1" fill="none" fill-rule="evenodd">
        <g id="woozle_logo">
            <rect id="Rectangle" fill="#444A57" x="0" y="0" width="300" height="200"></rect>
            <path d="M86.905,126.685 L69.085,180.145 C68.6449978,181.53834 68.0216707,182.235 67.215,182.235 C66.6283304,182.235 66.2250011,181.758338 66.005,180.805 C65.7849989,179.851662 65.3816696,178.605008 64.795,177.065 L57.205,154.955 C56.9849989,154.221663 56.6916685,153.855 56.325,153.855 C56.1783326,153.855 55.9216685,154.221663 55.555,154.955 L45.325,180.145 C45.0316652,180.878337 44.8116674,181.409998 44.665,181.74 C44.5183326,182.070002 44.2250022,182.235 43.785,182.235 C43.051663,182.235 41.9883403,180.25502 40.595,176.295 L22.665,124.815 C21.7116619,122.174987 20.9050033,120.048341 20.245,118.435 C19.5849967,116.821659 18.7416718,115.72167 17.715,115.135 C17.3483315,114.914999 16.9266691,114.786667 16.45,114.75 C15.973331,114.713333 15.5333354,114.658334 15.13,114.585 C14.7266647,114.511666 14.3783348,114.365001 14.085,114.145 C13.7916652,113.924999 13.645,113.595002 13.645,113.155 C13.645,112.128328 14.4149923,111.615 15.955,111.615 C16.4683359,111.615 17.6049912,111.743332 19.365,112 C21.1250088,112.256668 23.6549835,112.385 26.955,112.385 C29.3016784,112.385 31.0983271,112.293334 32.345,112.11 C33.5916729,111.926666 34.3249989,111.835 34.545,111.835 C35.4250044,111.835 35.865,112.311662 35.865,113.265 C35.865,113.925003 35.6266691,114.346666 35.15,114.53 C34.673331,114.713334 34.1600028,114.896666 33.61,115.08 C33.0599973,115.263334 32.5466691,115.519998 32.07,115.85 C31.593331,116.180002 31.355,116.784996 31.355,117.665 C31.355,117.811667 31.4283326,118.324996 31.575,119.205 C31.7216674,120.085004 32.0149978,121.148327 32.455,122.395 L46.865,163.755 C47.0850011,164.415003 47.3049989,164.745 47.525,164.745 C47.8183348,164.745 48.0749989,164.378337 48.295,163.645 L53.575,149.235 C53.8683348,148.428329 54.015,147.768336 54.015,147.255 C54.015,146.374996 53.9050011,145.64167 53.685,145.055 L45.105,120.085 C44.0783282,117.004985 42.8683403,115.245002 41.475,114.805 C40.6683293,114.584999 39.9350033,114.456667 39.275,114.42 C38.6149967,114.383333 38.285,113.961671 38.285,113.155 C38.285,112.201662 38.9816597,111.725 40.375,111.725 C41.6216729,111.725 43.2349901,111.834999 45.215,112.055 C47.1950099,112.275001 49.651652,112.385 52.585,112.385 C54.2716751,112.385 55.5549956,112.293334 56.435,112.11 C57.3150044,111.926666 57.9016652,111.835 58.195,111.835 C58.8550033,111.835 59.185,112.274996 59.185,113.155 C59.185,113.888337 58.9650022,114.346666 58.525,114.53 C58.0849978,114.713334 57.6266691,114.878333 57.15,115.025 C56.673331,115.171667 56.2150022,115.409998 55.775,115.74 C55.3349978,116.070002 55.115,116.674996 55.115,117.555 C55.115,118.14167 55.2066658,118.856662 55.39,119.7 C55.5733343,120.543338 55.8483315,121.478328 56.215,122.505 L59.185,131.305 C59.4783348,132.258338 59.7716652,132.735 60.065,132.735 C60.2850011,132.735 60.6149978,132.221672 61.055,131.195 L65.345,120.085 C65.4916674,119.718332 65.6016663,119.24167 65.675,118.655 C65.7483337,118.06833 65.785,117.48167 65.785,116.895 C65.785,116.234997 65.5833354,115.758335 65.18,115.465 C64.7766647,115.171665 64.3183359,114.933334 63.805,114.75 C63.2916641,114.566666 62.8333354,114.383334 62.43,114.2 C62.0266647,114.016666 61.825,113.63167 61.825,113.045 C61.825,112.091662 62.2283293,111.615 63.035,111.615 C63.4750022,111.615 64.1899951,111.706666 65.18,111.89 C66.170005,112.073334 67.4716586,112.165 69.085,112.165 C70.8450088,112.165 72.2749945,112.091667 73.375,111.945 C74.4750055,111.798333 75.2816641,111.725 75.795,111.725 C76.9683392,111.725 77.555,112.164996 77.555,113.045 C77.555,113.63167 77.4083348,114.016666 77.115,114.2 C76.8216652,114.383334 76.4550022,114.493333 76.015,114.53 C75.5749978,114.566667 75.0983359,114.603333 74.585,114.64 C74.0716641,114.676667 73.5950022,114.804999 73.155,115.025 C72.3483293,115.391669 71.6700028,116.069995 71.12,117.06 C70.5699973,118.050005 70.0016696,119.278326 69.415,120.745 L62.595,137.465 C62.4483326,137.831669 62.3016674,138.179998 62.155,138.51 C62.0083326,138.840002 61.935,139.188332 61.935,139.555 C61.935,139.848335 62.0083326,140.214998 62.155,140.655 L69.635,163.755 C69.8550011,164.415003 70.1116652,164.745 70.405,164.745 C70.7716685,164.745 71.0649989,164.378337 71.285,163.645 L83.715,124.705 C84.1550022,123.238326 84.4849989,121.845007 84.705,120.525 C84.9250011,119.204993 85.035,118.25167 85.035,117.665 C85.035,116.564994 84.8150022,115.831669 84.375,115.465 C83.9349978,115.098332 83.4400028,114.841667 82.89,114.695 C82.3399973,114.548333 81.8450022,114.383334 81.405,114.2 C80.9649978,114.016666 80.745,113.595003 80.745,112.935 C80.745,111.981662 81.0749967,111.505 81.735,111.505 C82.1016685,111.505 82.8533277,111.614999 83.99,111.835 C85.1266724,112.055001 86.7216564,112.165 88.775,112.165 C90.7550099,112.165 92.3316608,112.091667 93.505,111.945 C94.6783392,111.798333 95.4849978,111.725 95.925,111.725 C97.0983392,111.725 97.685,112.164996 97.685,113.045 C97.685,113.705003 97.5016685,114.108333 97.135,114.255 C96.7683315,114.401667 96.2916696,114.511666 95.705,114.585 C95.1183304,114.658334 94.4766702,114.786666 93.78,114.97 C93.0833299,115.153334 92.4050033,115.611663 91.745,116.345 C91.1583304,116.93167 90.4433376,118.104991 89.6,119.865 C88.7566625,121.625009 87.8583381,123.898319 86.905,126.685 Z M85.145,155.505 C85.145,151.54498 85.6949945,147.951683 86.795,144.725 C87.8950055,141.498317 89.4716564,138.748345 91.525,136.475 C93.5783436,134.201655 96.0349857,132.441673 98.895,131.195 C101.755014,129.948327 104.944982,129.325 108.465,129.325 C111.83835,129.325 114.918319,129.96666 117.705,131.25 C120.491681,132.53334 122.856657,134.329988 124.8,136.64 C126.743343,138.950012 128.246661,141.718317 129.31,144.945 C130.373339,148.171683 130.905,151.76498 130.905,155.725 C130.905,159.611686 130.355006,163.168317 129.255,166.395 C128.154995,169.621683 126.596677,172.371655 124.58,174.645 C122.563323,176.918345 120.088348,178.678327 117.155,179.925 C114.221652,181.171673 110.921685,181.795 107.255,181.795 C103.954984,181.795 100.948347,181.15334 98.235,179.87 C95.5216531,178.58666 93.1933431,176.790012 91.25,174.48 C89.306657,172.169988 87.8033387,169.401683 86.74,166.175 C85.6766614,162.948317 85.145,159.391686 85.145,155.505 Z M108.025,132.405 C103.844979,132.405 100.618345,134.274981 98.345,138.015 C96.0716553,141.755019 94.935,147.071632 94.935,153.965 C94.935,161.738372 96.1633211,167.806645 98.62,172.17 C101.076679,176.533355 104.28498,178.715 108.245,178.715 C112.278354,178.715 115.449988,176.826686 117.76,173.05 C120.070012,169.273314 121.225,163.975034 121.225,157.155 C121.225,149.381628 119.996679,143.313355 117.54,138.95 C115.083321,134.586645 111.911686,132.405 108.025,132.405 Z M134.645,155.505 C134.645,151.54498 135.194995,147.951683 136.295,144.725 C137.395006,141.498317 138.971656,138.748345 141.025,136.475 C143.078344,134.201655 145.534986,132.441673 148.395,131.195 C151.255014,129.948327 154.444982,129.325 157.965,129.325 C161.33835,129.325 164.418319,129.96666 167.205,131.25 C169.991681,132.53334 172.356657,134.329988 174.3,136.64 C176.243343,138.950012 177.746661,141.718317 178.81,144.945 C179.873339,148.171683 180.405,151.76498 180.405,155.725 C180.405,159.611686 179.855005,163.168317 178.755,166.395 C177.654995,169.621683 176.096677,172.371655 174.08,174.645 C172.063323,176.918345 169.588348,178.678327 166.655,179.925 C163.721652,181.171673 160.421685,181.795 156.755,181.795 C153.454984,181.795 150.448347,181.15334 147.735,179.87 C145.021653,178.58666 142.693343,176.790012 140.75,174.48 C138.806657,172.169988 137.303339,169.401683 136.24,166.175 C135.176661,162.948317 134.645,159.391686 134.645,155.505 Z M157.525,132.405 C153.344979,132.405 150.118345,134.274981 147.845,138.015 C145.571655,141.755019 144.435,147.071632 144.435,153.965 C144.435,161.738372 145.663321,167.806645 148.12,172.17 C150.576679,176.533355 153.78498,178.715 157.745,178.715 C161.778354,178.715 164.949988,176.826686 167.26,173.05 C169.570012,169.273314 170.725,163.975034 170.725,157.155 C170.725,149.381628 169.496679,143.313355 167.04,138.95 C164.583321,134.586645 161.411686,132.405 157.525,132.405 Z M198.225,132.405 C197.491663,132.478334 196.813336,132.533333 196.19,132.57 C195.566664,132.606667 194.998336,132.625 194.485,132.625 C192.138322,132.625 190.67167,132.148338 190.085,131.195 C189.938333,130.974999 189.828334,130.663335 189.755,130.26 C189.681666,129.856665 189.626667,129.490002 189.59,129.16 C189.553333,128.829998 189.443334,128.536668 189.26,128.28 C189.076666,128.023332 188.801669,127.895 188.435,127.895 C187.701663,127.895 187.170002,128.426661 186.84,129.49 C186.509998,130.553339 185.941671,132.148323 185.135,134.275 C184.328329,136.401677 183.778335,138.069994 183.485,139.28 C183.191665,140.490006 183.045,141.278332 183.045,141.645 C183.045,142.671672 183.411663,143.185 184.145,143.185 C184.585002,143.185 184.951665,143.001668 185.245,142.635 C185.538335,142.268331 185.849998,141.810003 186.18,141.26 C186.510002,140.709997 186.876665,140.123336 187.28,139.5 C187.683335,138.876664 188.17833,138.345002 188.765,137.905 C190.085007,136.878328 191.753323,136.255001 193.77,136.035 C195.786677,135.814999 198.224986,135.705 201.085,135.705 L206.805,135.705 C207.318336,135.705 207.575,135.99833 207.575,136.585 C207.575,136.731667 207.501667,136.951665 207.355,137.245 L182.605,177.175 C181.798329,178.56834 181.395,179.521664 181.395,180.035 C181.395,180.695003 182.018327,181.025 183.265,181.025 C183.485001,181.025 184.163328,180.988334 185.3,180.915 C186.436672,180.841666 188.141655,180.805 190.415,180.805 L210.105,180.805 C211.425007,180.805 212.616661,180.878333 213.68,181.025 C214.743339,181.171667 215.714996,181.245 216.595,181.245 C217.548338,181.245 218.134999,181.098335 218.355,180.805 C218.575001,180.511665 218.685,180.07167 218.685,179.485 C218.685,179.118332 218.666667,178.733335 218.63,178.33 C218.593333,177.926665 218.575,177.541669 218.575,177.175 C218.575,175.414991 218.629999,173.801674 218.74,172.335 C218.850001,170.868326 218.905,169.511673 218.905,168.265 C218.905,167.018327 218.501671,166.395 217.695,166.395 C217.10833,166.395 216.668335,166.669997 216.375,167.22 C216.081665,167.770003 215.806668,168.448329 215.55,169.255 C215.293332,170.061671 214.945002,170.923329 214.505,171.84 C214.064998,172.756671 213.478337,173.544997 212.745,174.205 C210.324988,176.331677 205.998365,177.395 199.765,177.395 L194.925,177.395 C194.778333,177.395 194.650001,177.285001 194.54,177.065 C194.429999,176.844999 194.375,176.625001 194.375,176.405 C194.375,176.038331 194.521665,175.671669 194.815,175.305 L218.685,136.145 C219.491671,134.75166 219.895,133.835002 219.895,133.395 C219.895,133.028332 219.730002,132.680002 219.4,132.35 C219.069998,132.019998 218.648336,131.855 218.135,131.855 C217.108328,131.855 215.733342,131.946666 214.01,132.13 C212.286658,132.313334 210.251678,132.405 207.905,132.405 L198.225,132.405 Z M236.395,114.035 C236.395,112.494992 236.449999,111.101673 236.56,109.855 C236.670001,108.608327 236.725,107.508338 236.725,106.555 C236.725,105.894997 236.651667,105.381669 236.505,105.015 C236.358333,104.648331 235.99167,104.465 235.405,104.465 C235.038332,104.465 234.250006,104.886662 233.04,105.73 C231.829994,106.573338 229.941679,107.471662 227.375,108.425 C226.054993,108.938336 224.900005,109.323332 223.91,109.58 C222.919995,109.836668 222.425,110.368329 222.425,111.175 C222.425,111.615002 222.663331,111.944999 223.14,112.165 C223.616669,112.385001 224.166664,112.604999 224.79,112.825 C225.413336,113.045001 225.963331,113.374998 226.44,113.815 C226.916669,114.255002 227.155,114.951662 227.155,115.905 L227.155,173.105 C227.155,174.205006 227.045001,175.066664 226.825,175.69 C226.604999,176.313336 225.981672,176.808332 224.955,177.175 C223.781661,177.615002 222.791671,177.835 221.985,177.835 C221.251663,177.835 220.885,178.348328 220.885,179.375 C220.885,180.548339 221.544993,181.135 222.865,181.135 C223.891672,181.135 225.156659,181.025001 226.66,180.805 C228.163341,180.584999 229.868324,180.475 231.775,180.475 C233.608342,180.475 235.331659,180.584999 236.945,180.805 C238.558341,181.025001 239.988327,181.135 241.235,181.135 C242.701674,181.135 243.435,180.621672 243.435,179.595 C243.435,178.934997 243.288335,178.476668 242.995,178.22 C242.701665,177.963332 242.316669,177.798334 241.84,177.725 C241.363331,177.651666 240.83167,177.596667 240.245,177.56 C239.65833,177.523333 239.07167,177.358335 238.485,177.065 C237.09166,176.404997 236.395,174.865012 236.395,172.445 L236.395,114.035 Z M264.335,146.375 C267.928351,146.375 270.549992,145.971671 272.2,145.165 C273.850008,144.358329 274.675,142.745012 274.675,140.325 C274.675,138.491658 273.923341,136.805008 272.42,135.265 C270.916659,133.724992 268.991678,132.955 266.645,132.955 C264.078321,132.955 261.841676,133.94499 259.935,135.925 C258.028324,137.90501 256.78167,140.398318 256.195,143.405 L255.865,145.165 L255.865,145.385 C255.865,146.045003 256.304996,146.375 257.185,146.375 L264.335,146.375 Z M280.615,148.685 L256.305,148.685 C255.71833,148.685 255.351667,148.794999 255.205,149.015 C255.058333,149.235001 254.985,149.711663 254.985,150.445 L254.985,153.085 C254.985,159.905034 256.433319,165.29498 259.33,169.255 C262.226681,173.21502 265.984977,175.195 270.605,175.195 C272.658344,175.195 274.436659,174.865003 275.94,174.205 C277.443341,173.544997 278.689995,172.811671 279.68,172.005 C280.670005,171.198329 281.439997,170.465003 281.99,169.805 C282.540003,169.144997 282.924999,168.815 283.145,168.815 C283.73167,168.815 284.025,169.218329 284.025,170.025 C284.025,170.831671 283.585004,171.894993 282.705,173.215 C281.824996,174.535007 280.560008,175.83666 278.91,177.12 C277.259992,178.40334 275.298345,179.521662 273.025,180.475 C270.751655,181.428338 268.185014,181.905 265.325,181.905 C262.318318,181.905 259.586679,181.300006 257.13,180.09 C254.673321,178.879994 252.565009,177.138345 250.805,174.865 C249.044991,172.591655 247.688338,169.841683 246.735,166.615 C245.781662,163.388317 245.305,159.758354 245.305,155.725 C245.305,151.691647 245.836661,148.04335 246.9,144.78 C247.963339,141.51665 249.448324,138.748345 251.355,136.475 C253.261676,134.201655 255.516654,132.441673 258.12,131.195 C260.723346,129.948327 263.564985,129.325 266.645,129.325 C269.285013,129.325 271.704989,129.783329 273.905,130.7 C276.105011,131.616671 277.974992,132.844992 279.515,134.385 C281.055008,135.925008 282.246662,137.721656 283.09,139.775 C283.933338,141.828344 284.355,144.028322 284.355,146.375 C284.355,147.328338 284.06167,147.951665 283.475,148.245 C282.88833,148.538335 281.935007,148.685 280.615,148.685 Z" id="Woozle" fill="#FFFFFF"></path>
            <text id="Unbiasedly-unfiltert" font-family="Lato-Regular, Lato" font-size="26" font-weight="normal" letter-spacing="-0.397959173" fill="#444A57">
                <tspan x="25.4815509" y="234.892804">Unbiasedly unfilterted.</tspan>
            </text>
        </g>
    </g>
</svg>